<svg width="200" height="200" xmlns="http://www.w3.org/2000/svg">
  <!-- 背景 -->
  <rect width="200" height="200" fill="#f8f9fa" rx="10" ry="10"/>
  
  <!-- 苹果主体 -->
  <path d="M100,40 C130,40 150,60 160,90 C165,120 155,150 130,170 C105,190 75,190 50,170 C25,150 15,120 20,90 C30,60 50,40 80,40 Z" fill="#e53935"/>
  <path d="M100,50 C125,50 140,65 145,90 C145,115 135,135 115,155 C95,175 85,180 65,175 C45,170 30,155 25,130 C25,105 35,80 60,55 C80,45 90,45 100,50 Z" fill="#c62828"/>
  
  <!-- 苹果高光 -->
  <path d="M70,70 C80,60 100,60 110,70 C115,75 115,85 110,90 C100,100 80,100 70,90 C65,85 65,75 70,70 Z" fill="rgba(255,255,255,0.3)"/>
  
  <!-- 苹果柄 -->
  <path d="M95,50 C95,40 105,40 105,50" stroke="#795548" stroke-width="4" stroke-linecap="round"/>
  <path d="M93,50 C90,55 90,60 95,65 C100,70 110,70 115,65 C120,60 120,55 117,50 C112,45 102,45 97,45 Z" fill="#795548"/>
  <path d="M93,45 C92,40 98,35 102,35 C106,35 112,40 111,45" stroke="#5d4037" stroke-width="2" stroke-linecap="round"/>
  <!-- 苹果叶子 -->
  <path d="M85,45 C80,35 95,25 105,35 C115,25 130,35 125,45 C120,55 110,55 105,45 C100,55 90,55 85,45 Z" fill="#4caf50"/>
  <path d="M105,35 C100,30 110,25 115,30" stroke="#388e3c" stroke-width="1" fill="none"/>
  <path d="M105,45 C100,40 110,35 115,40" stroke="#388e3c" stroke-width="1" fill="none"/>
</svg>