<svg width="200" height="200" xmlns="http://www.w3.org/2000/svg">
  <!-- 背景 -->
  <rect width="200" height="200" fill="#f8f9fa" rx="10" ry="10"/>
  <!-- 香蕉主体 -->
  <path d="M100,40 C120,45 140,60 150,80 C155,100 150,120 135,140 C120,160 100,170 80,165 C60,160 50,140 60,120 C70,100 80,60 100,40 Z" fill="#ffeb3b"/>
  <path d="M100,45 C115,50 130,60 138,80 C142,95 138,115 125,135 C112,155 95,162 75,158 C55,155 50,138 58,118 C65,98 80,65 100,45 Z" fill="#ffd600"/>
  <!-- 香蕉顶部 -->
  <path d="M90,45 L85,35 L105,35 L110,45 C110,45 105,40 100,40 C95,40 90,45 90,45 Z" fill="#aed581"/>
  <path d="M85,35 L105,35" stroke="#7cb342" stroke-width="2"/>
  <!-- 香蕉高光 -->
  <path d="M110,60 C120,65 130,85 120,95 C110,105 100,85 100,75 C100,65 105,60 110,60 Z" fill="rgba(255,255,255,0.4)"/>
  <!-- 香蕉纹理 -->
  <path d="M100,45 C110,55 120,70 125,90 C130,110 125,130 115,145 C105,160 95,165 85,160 C75,155 70,140 75,120 C80,100 90,60 100,45 Z" fill="none" stroke="rgba(255,213,0,0.5)" stroke-width="1"/>
</svg>