<svg width="200" height="200" xmlns="http://www.w3.org/2000/svg">
  <!-- 背景 -->
  <rect width="200" height="200" fill="#f8f9fa" rx="10" ry="10"/>
  <!-- 人物身体 -->
  <circle cx="100" cy="105" r="25" fill="#ffd7b5"/>
  <path d="M100,130 L70,180 M100,130 L130,180" stroke="#64b5f6" stroke-width="5" stroke-linecap="round"/>
  <path d="M100,130 L60,120 M100,130 L140,120" stroke="#64b5f6" stroke-width="5" stroke-linecap="round"/>
  <!-- 头部 -->
  <circle cx="100" cy="70" r="22" fill="#ffd7b5"/>
  <!-- 眼睛 -->
  <circle cx="90" cy="65" r="3" fill="#333"/>
  <circle cx="110" cy="65" r="3" fill="#333"/>
  <!-- 嘴巴 -->
  <path d="M90,75 L110,75" stroke="#333" stroke-width="2" stroke-linecap="round"/>
  <!-- 头发 -->
  <path d="M78,70 C70,60 70,50 78,43 L122,43 C130,50 130,60 122,70 Z" fill="#5d4037"/>
  <path d="M90,43 L90,50 M110,43 L110,50" stroke="#5d4037" stroke-width="3" stroke-linecap="round"/>
  <!-- 文字标签 -->
  <text x="100" y="190" font-family="Arial, sans-serif" font-size="16" text-anchor="middle" fill="#64b5f6" font-weight="bold">哥哥</text>
</svg>