<svg width="200" height="200" xmlns="http://www.w3.org/2000/svg">
  <!-- 背景 -->
  <rect width="200" height="200" fill="#f8f9fa" rx="10" ry="10"/>
  <!-- 盘子 -->
  <circle cx="100" cy="130" r="40" fill="#e0f7fa"/>
  <path d="M60,130 A40,40 0 0,0 140,130" stroke="#b2ebf2" stroke-width="3" fill="none"/>
  <!-- 鸡蛋 -->
  <path d="M100,90 C80,90 70,110 70,130 C70,150 80,170 100,170 C120,170 130,150 130,130 C130,110 120,90 100,90 Z" fill="#fffde7"/>
  <!-- 鸡蛋高光 -->
  <path d="M85,110 C95,105 105,105 115,110 L110,125 L90,125 Z" fill="#ffffff" opacity="0.6"/>
  <!-- 鸡蛋小装饰 -->
  <circle cx="92" cy="140" r="2" fill="#fff9c4" opacity="0.8"/>
  <circle cx="108" cy="135" r="1.5" fill="#fff9c4" opacity="0.7"/>
  <!-- 文字标签 -->
  <text x="100" y="175" font-family="Arial, sans-serif" font-size="16" text-anchor="middle" fill="#ffd54f" font-weight="bold">鸡蛋</text>
</svg>