<svg width="200" height="200" xmlns="http://www.w3.org/2000/svg">
  <!-- 背景 -->
  <rect width="200" height="200" fill="#f8f9fa" rx="10" ry="10"/>
  <!-- 牛奶盒 -->
  <path d="M70,150 L70,90 L130,90 L130,150 Z" fill="#ffffff" stroke="#e0e0e0" stroke-width="2"/>
  <path d="M130,90 L140,95 L140,155 L130,150 Z" fill="#f5f5f5" stroke="#e0e0e0" stroke-width="2"/>
  <path d="M70,90 L60,95 L60,155 L70,150 Z" fill="#f0f0f0" stroke="#e0e0e0" stroke-width="2"/>
  <!-- 牛奶盒顶部 -->
  <path d="M70,90 L100,70 L130,90 Z" fill="#fafafa" stroke="#e0e0e0" stroke-width="2"/>
  <path d="M130,90 L140,95 L130,110 L120,105 Z" fill="#fafafa" stroke="#e0e0e0" stroke-width="2"/>
  <path d="M70,90 L60,95 L70,110 L80,105 Z" fill="#fafafa" stroke="#e0e0e0" stroke-width="2"/>
  <!-- 牛奶盒盖子 -->
  <path d="M90,70 L110,70 L115,80 L100,90 L85,80 Z" fill="#ff6f00"/>
  <!-- 牛奶图案 -->
  <circle cx="100" cy="130" r="20" fill="#ffffff" stroke="#e0e0e0" stroke-width="2" opacity="0.8"/>
  <path d="M95,125 Q100,120 105,125" stroke="#b0bec5" stroke-width="1" fill="none"/>
  <path d="M92,130 Q100,125 108,130" stroke="#b0bec5" stroke-width="1" fill="none"/>
  <!-- 文字标签 -->
  <text x="100" y="175" font-family="Arial, sans-serif" font-size="16" text-anchor="middle" fill="#78909c" font-weight="bold">牛奶</text>
</svg>