<svg width="200" height="200" xmlns="http://www.w3.org/2000/svg">
  <!-- 背景 -->
  <rect width="200" height="200" fill="#f8f9fa" rx="10" ry="10"/>
  <!-- 碗 -->
  <path d="M60,130 C60,110 140,110 140,130 L135,150 C135,160 65,160 65,150 Z" fill="#e0f7fa"/>
  <!-- 面条汤 -->
  <path d="M70,130 C70,125 130,125 130,130 L125,140 C125,145 75,145 75,140 Z" fill="#b3e5fc" opacity="0.7"/>
  <!-- 面条 -->
  <path d="M85,125 Q95,115 105,120 T125,118" stroke="#fffde7" stroke-width="3" fill="none" stroke-linecap="round"/>
  <path d="M80,128 Q90,118 100,123 T120,121" stroke="#fffde7" stroke-width="3" fill="none" stroke-linecap="round"/>
  <path d="M90,122 Q100,112 110,117 T130,115" stroke="#fffde7" stroke-width="3" fill="none" stroke-linecap="round"/>
  <path d="M88,130 Q98,120 108,125 T128,123" stroke="#fffde7" stroke-width="2.5" fill="none" stroke-linecap="round"/>
  <!-- 配料 -->
  <circle cx="90" cy="135" r="4" fill="#ffcc80"/>
  <circle cx="110" cy="132" r="3" fill="#ff8a80"/>
  <path d="M100,138 L108,142" stroke="#81c784" stroke-width="2" stroke-linecap="round"/>
  <!-- 文字标签 -->
  <text x="100" y="175" font-family="Arial, sans-serif" font-size="16" text-anchor="middle" fill="#4dd0e1" font-weight="bold">面条</text>
</svg>