<svg width="200" height="200" xmlns="http://www.w3.org/2000/svg">
  <!-- 背景 -->
  <rect width="200" height="200" fill="#f8f9fa" rx="10" ry="10"/>
  <!-- 橙子主体 -->
  <circle cx="100" cy="100" r="70" fill="#ff9800"/>
  <circle cx="100" cy="100" r="65" fill="#ff8a65"/>
  <!-- 橙子高光 -->
  <path d="M70,80 C90,70 110,70 130,80 C135,85 135,95 130,100 C110,110 90,110 70,100 C65,95 65,85 70,80 Z" fill="rgba(255,255,255,0.4)"/>
  <!-- 橙子纹理 -->
  <path d="M100,30 C150,100 159,158 100,100" fill="none" stroke="rgba(255,152,0,0.3)" stroke-width="1"/>
  <path d="M100,30 C122,188 59,190 100,100" fill="none" stroke="rgba(255,152,0,0.3)" stroke-width="1"/>
  <path d="M100,30 C-2,182 13,115 100,100" fill="none" stroke="rgba(255,152,0,0.3)" stroke-width="1"/>
  <path d="M100,30 C13,59 50,0 100,100" fill="none" stroke="rgba(255,152,0,0.3)" stroke-width="1"/>
  <path d="M100,30 C187,59 150,0 100,100" fill="none" stroke="rgba(255,152,0,0.3)" stroke-width="1"/>
  <!-- 橙子顶部 -->
  <circle cx="100" cy="50" r="10" fill="#ffb74d"/>
  <circle cx="100" cy="50" r="5" fill="#ffa726"/>
  <!-- 橙子底部 -->
  <circle cx="100" cy="150" r="8" fill="#ffb74d"/>
  <circle cx="100" cy="150" r="4" fill="#ffa726"/>
  <!-- 橙子叶子 -->
  <path d="M95,45 C90,35 110,35 105,45 C100,35 120,35 115,45" stroke="#4caf50" stroke-width="3" stroke-linecap="round" fill="none"/>
  <path d="M100,35 C95,25 105,25 110,35" stroke="#388e3c" stroke-width="1.5" stroke-linecap="round" fill="none"/>
  <!-- 橙子细节 -->
  <path d="M100,100 C120,90 140,110 120,120" fill="none" stroke="rgba(255,152,0,0.5)" stroke-width="1"/>
  <path d="M100,100 C80,90 60,110 80,120" fill="none" stroke="rgba(255,152,0,0.5)" stroke-width="1"/>
  <path d="M100,100 C120,110 140,90 120,80" fill="none" stroke="rgba(255,152,0,0.5)" stroke-width="1"/>
  <path d="M100,100 C80,110 60,90 80,80" fill="none" stroke="rgba(255,152,0,0.5)" stroke-width="1"/>
</svg>