<svg width="200" height="200" xmlns="http://www.w3.org/2000/svg">
  <!-- 背景 -->
  <rect width="200" height="200" fill="#f8f9fa" rx="10" ry="10"/>
  <!-- 草莓主体 -->
  <path d="M100,50 C130,50 150,80 150,110 C150,140 130,170 100,180 C70,170 50,140 50,110 C50,80 70,50 100,50 Z" fill="#e53935"/>
  <path d="M100,60 C125,60 140,85 140,110 C140,135 125,160 100,170 C75,160 60,135 60,110 C60,85 75,60 100,60 Z" fill="#c62828"/>
  <!-- 草莓高光 -->
  <path d="M75,80 C85,70 95,70 105,80 C110,85 110,95 105,100 C95,110 85,110 75,100 C70,95 70,85 75,80 Z" fill="rgba(255,255,255,0.3)"/>
  <path d="M120,90 C130,85 140,95 135,105 C130,115 120,110 115,100 C110,90 115,85 120,90 Z" fill="rgba(255,255,255,0.2)"/>
  <!-- 草莓叶子 -->
  <path d="M90,50 L80,30 L95,35 L85,20 L100,25 L95,10 L105,20 L120,15 L110,30 L125,25 L115,40 Z" fill="#4caf50"/>
  <path d="M90,50 L100,35 L110,50" stroke="#388e3c" stroke-width="2" fill="none"/>
  <!-- 草莓种子 -->
  <path d="M85,90 C87,88 90,88 92,90 C94,92 94,95 92,97 C90,99 87,99 85,97 C83,95 83,92 85,90 Z" fill="#fff8e1"/>
  <path d="M115,90 C117,88 120,88 122,90 C124,92 124,95 122,97 C120,99 117,99 115,97 C113,95 113,92 115,90 Z" fill="#fff8e1"/>
  <path d="M100,105 C102,103 105,103 107,105 C109,107 109,110 107,112 C105,114 102,114 100,112 C98,110 98,107 100,105 Z" fill="#fff8e1"/>
  <path d="M75,110 C77,108 80,108 82,110 C84,112 84,115 82,117 C80,119 77,119 75,117 C73,115 73,112 75,110 Z" fill="#fff8e1"/>
  <path d="M125,110 C127,108 130,108 132,110 C134,112 134,115 132,117 C130,119 127,119 125,117 C123,115 123,112 125,110 Z" fill="#fff8e1"/>
  <path d="M90,125 C92,123 95,123 97,125 C99,127 99,130 97,132 C95,134 92,134 90,132 C88,130 88,127 90,125 Z" fill="#fff8e1"/>
  <path d="M110,125 C112,123 115,123 117,125 C119,127 119,130 117,132 C115,134 112,134 110,132 C108,130 108,127 110,125 Z" fill="#fff8e1"/>
  <path d="M100,140 C102,138 105,138 107,140 C109,142 109,145 107,147 C105,149 102,149 100,147 C98,145 98,142 100,140 Z" fill="#fff8e1"/>
</svg>