<svg width="200" height="200" xmlns="http://www.w3.org/2000/svg">
  <!-- 背景 -->
  <rect width="200" height="200" fill="#f8f9fa" rx="10" ry="10"/>
  <!-- 数字3图形 -->
  <path d="M120,60 C140,55 150,70 145,90 L105,120 C100,125 85,125 80,120 L75,110 C75,100 85,95 95,100 L130,80 C135,75 125,70 115,75 L95,95 C90,100 75,105 70,95 C65,85 75,75 85,70 L125,50" stroke="#4caf50" stroke-width="15" stroke-linecap="round" fill="none"/>
  <path d="M120,110 C140,105 150,120 145,140 L105,170 C100,175 85,175 80,170 L75,160 C75,150 85,145 95,150 L130,130 C135,125 125,120 115,125 L95,145 C90,150 75,155 70,145 C65,135 75,125 85,120 L125,100" stroke="#4caf50" stroke-width="15" stroke-linecap="round" fill="none"/>
  <!-- 装饰圆形 -->
  <circle cx="100" cy="140" r="60" fill="#e8f5e9" opacity="0.7"/>
  <!-- 星星装饰 -->
  <path d="M150,70 L155,82 L168,84 L158,93 L160,107 L150,103 L140,107 L142,93 L132,84 L145,82 Z" fill="#ffd700"/>
  <!-- 数字标签 -->
  <text x="100" y="180" font-family="Arial, sans-serif" font-size="16" text-anchor="middle" fill="#4caf50" font-weight="bold">三 (3)</text>
  <!-- 拼音标签 -->
  <text x="100" y="195" font-family="Arial, sans-serif" font-size="12" text-anchor="middle" fill="#666">sān (three)</text>
</svg>