<svg width="200" height="200" xmlns="http://www.w3.org/2000/svg">
  <!-- 背景 -->
  <rect width="200" height="200" fill="#f8f9fa" rx="10" ry="10"/>
  <!-- 数字2图形 -->
  <path d="M120,60 C140,55 150,70 145,90 L105,140 C100,150 85,155 75,150 L70,140 C70,130 80,125 90,130 L125,90 C130,80 120,75 110,80 L90,120 C85,130 70,135 65,125 C60,115 70,105 80,100 L120,50" stroke="#ff9800" stroke-width="15" stroke-linecap="round" fill="none"/>
  <!-- 装饰圆形 -->
  <circle cx="100" cy="140" r="60" fill="#fff3e0" opacity="0.7"/>
  <!-- 星星装饰 -->
  <path d="M150,70 L155,82 L168,84 L158,93 L160,107 L150,103 L140,107 L142,93 L132,84 L145,82 Z" fill="#ffd700"/>
  <path d="M60,120 L65,132 L78,134 L68,143 L70,157 L60,153 L50,157 L52,143 L42,134 L55,132 Z" fill="#4caf50"/>
  <!-- 数字标签 -->
  <text x="100" y="180" font-family="Arial, sans-serif" font-size="16" text-anchor="middle" fill="#ff9800" font-weight="bold">二 (2)</text>
  <!-- 拼音标签 -->
  <text x="100" y="195" font-family="Arial, sans-serif" font-size="12" text-anchor="middle" fill="#666">èr (two)</text>
</svg>