<svg xmlns="http://www.w3.org/2000/svg" viewBox="0 0 200 200" width="200" height="200">
  <!-- 背景圆 -->
  <circle cx="100" cy="100" r="95" fill="#FF6B6B"/>
  <!-- 白色内部圆 -->
  <circle cx="100" cy="100" r="85" fill="white"/>
  <!-- 书本形状 -->
  <rect x="55" y="60" width="90" height="70" rx="10" ry="10" fill="#4ECDC4"/>
  <rect x="55" y="65" width="90" height="60" rx="5" ry="5" fill="#F7FFF7"/>
  <!-- 书脊 -->
  <rect x="55" y="60" width="10" height="70" rx="5" ry="5" fill="#2A9D8F"/>
  <!-- 卡通文字"萌豆" -->
  <path d="M70,90 C75,80 85,80 90,90 C95,100 105,100 110,90 C115,80 125,80 130,90 L130,110 L120,110 C115,100 105,100 100,110 C95,100 85,100 80,110 L70,110 Z" fill="#FF6B6B"/>
  <path d="M140,90 C145,80 155,80 160,90 C165,100 175,100 180,90 L180,110 L170,110 C165,100 155,100 150,110 C145,100 135,100 130,110 L140,110 Z" fill="#FF6B6B"/>
  <!-- 装饰元素 - 拼音符号 -->
  <circle cx="80" cy="130" r="8" fill="#FFD166"/>
  <circle cx="100" cy="130" r="8" fill="#06D6A0"/>
  <circle cx="120" cy="130" r="8" fill="#118AB2"/>
</svg>